<?xml version="1.0" encoding="utf-8"?>
<!-- Generator: Adobe Illustrator 27.6.0, SVG Export Plug-In . SVG Version: 6.00 Build 0)  -->
<svg version="1.1" id="Layer_1" xmlns="http://www.w3.org/2000/svg" xmlns:xlink="http://www.w3.org/1999/xlink" x="0px" y="0px"
	 viewBox="0 0 88.4 29.5" style="enable-background:new 0 0 88.4 29.5;" xml:space="preserve">
<g>
	<g transform="matrix(1.33333 0 0 -1.33333 -814.03545 76.215865)">
		<path class="st0" d="M675.9,56.3c0.1,0,0.2,0,0.2,0.2c0,0.1-0.1,0.1-0.2,0.1h-0.2v-0.3H675.9z M675.7,55.7h-0.2v1h0.4
			c0.3,0,0.4-0.1,0.4-0.3c0-0.2-0.1-0.3-0.3-0.3l0.3-0.5h-0.2l-0.3,0.4h-0.2L675.7,55.7z M675.9,57c-0.4,0-0.7-0.3-0.7-0.8
			c0-0.4,0.3-0.8,0.7-0.8c0.4,0,0.7,0.3,0.7,0.8C676.6,56.7,676.3,57,675.9,57 M675.9,55.3c-0.5,0-0.9,0.4-0.9,0.9
			c0,0.6,0.4,0.9,0.9,0.9c0.5,0,0.9-0.4,0.9-0.9C676.8,55.6,676.4,55.3,675.9,55.3 M675.4,47.5l1.4,1.4V53l-4.1,4.1h-13.8l-4.1-4.1
			v2.8l-1.4,1.4h-5.5l-1.4-1.4V53l-2.8-2.8l-2.8,2.8v2.8l-1.4,1.4H634l-1.4-1.4l-1.4,1.4h-5.5l-1.4-1.4v-5.5l-6.9,6.9h-5.5l-1.4-1.4
			V36.4l1.4-1.4h5.5l1.4,1.4V42l6.9-6.9h5.5l1.4,1.4v11l6.9-6.9v-4.1l1.4-1.4h5.5l1.4,1.4v4.1l6.9,6.9v-8.3l4.1-4.1h13.8l4.1,4.1
			v4.1l-1.4,1.4h-6.9v-1.4H663v5.5h5.5v-1.4H675.4z"/>
	</g>
</g>
</svg>
